<svg xmlns="http://www.w3.org/2000/svg" xmlns:xlink="http://www.w3.org/1999/xlink" width="50.902" height="64.464" viewBox="0 0 50.902 64.464">
  <defs>
    <filter id="ic_contacts_24px" x="0" y="0" width="50.902" height="64.464" filterUnits="userSpaceOnUse">
      <feOffset dy="3" input="SourceAlpha"/>
      <feGaussianBlur stdDeviation="1.5" result="blur"/>
      <feFlood flood-opacity="0.149"/>
      <feComposite operator="in" in2="blur"/>
      <feComposite in="SourceGraphic"/>
    </filter>
  </defs>
  <g id="ic_contactUs" transform="translate(4.5 56.964) rotate(-90)">
    <g transform="matrix(0, 1, -1, 0, 56.96, -4.5)" filter="url(#ic_contacts_24px)">
      <path id="ic_contacts_24px-2" data-name="ic_contacts_24px" d="M37.713,0H4.19V4.622H37.713ZM4.19,55.464H37.713V50.842H4.19ZM37.713,9.244H4.19A4.435,4.435,0,0,0,0,13.866V41.6A4.435,4.435,0,0,0,4.19,46.22H37.713A4.435,4.435,0,0,0,41.9,41.6V13.866A4.435,4.435,0,0,0,37.713,9.244ZM20.951,15.6a4.982,4.982,0,0,1,4.714,5.2A4.982,4.982,0,0,1,20.951,26a4.982,4.982,0,0,1-4.714-5.2A4.982,4.982,0,0,1,20.951,15.6ZM31.427,39.287H10.476V35.821c0-3.859,6.977-5.778,10.476-5.778s10.476,1.918,10.476,5.778Z" transform="translate(4.5 1.5)" fill="#fff"/>
    </g>
  </g>
</svg>
