<svg xmlns="http://www.w3.org/2000/svg" xmlns:xlink="http://www.w3.org/1999/xlink" width="53.535" height="59.474" viewBox="0 0 53.535 59.474">
  <defs>
    <filter id="Exclusion_1" x="0" y="0" width="53.535" height="59.474" filterUnits="userSpaceOnUse">
      <feOffset dy="3" input="SourceAlpha"/>
      <feGaussianBlur stdDeviation="1.5" result="blur"/>
      <feFlood flood-opacity="0.149"/>
      <feComposite operator="in" in2="blur"/>
      <feComposite in="SourceGraphic"/>
    </filter>
  </defs>
  <g id="ic_Dashbard" transform="translate(4.5 51.974) rotate(-90)">
    <g transform="matrix(0, 1, -1, 0, 51.97, -4.5)" filter="url(#Exclusion_1)">
      <path id="Exclusion_1-2" data-name="Exclusion 1" d="M44.536,50.474H24.742V22.433H32.3V16.826H24.742V0H44.536V16.824H37.684v5.608h6.852v28.04ZM32.3,22.433V35.22h5.384V22.434H32.3Zm5.384-13.65H32.3v8.042h5.384ZM19.794,50.474H0V33.649H7.178V28.042H0V0H19.794V28.04H12.561v5.608h7.232V50.473ZM7.178,33.649V47.423h5.383V33.65H7.178Zm5.383-22.833H7.178V28.041h5.383Z" transform="translate(4.5 1.5)" fill="#fff"/>
    </g>
  </g>
</svg>
