<svg xmlns="http://www.w3.org/2000/svg" xmlns:xlink="http://www.w3.org/1999/xlink" width="65.903" height="60.027" viewBox="0 0 65.903 60.027">
  <defs>
    <filter id="ic_person_24px" x="8.891" y="0" width="57.013" height="60.027" filterUnits="userSpaceOnUse">
      <feOffset dy="3" input="SourceAlpha"/>
      <feGaussianBlur stdDeviation="1.5" result="blur"/>
      <feFlood flood-opacity="0.149"/>
      <feComposite operator="in" in2="blur"/>
      <feComposite in="SourceGraphic"/>
    </filter>
    <filter id="ic_arrow_forward_24px" x="0" y="15.284" width="26.376" height="24.054" filterUnits="userSpaceOnUse">
      <feOffset dy="3" input="SourceAlpha"/>
      <feGaussianBlur stdDeviation="1.5" result="blur-2"/>
      <feFlood flood-opacity="0.149"/>
      <feComposite operator="in" in2="blur-2"/>
      <feComposite in="SourceGraphic"/>
    </filter>
  </defs>
  <g id="ic_sighIn" transform="translate(4.5 52.527) rotate(-90)">
    <g id="Group_112" data-name="Group 112" transform="translate(0 0)">
      <g id="Group_113" data-name="Group 113" transform="translate(0 0)">
        <g transform="matrix(0, 1, -1, 0, 52.53, -4.5)" filter="url(#ic_person_24px)">
          <path id="ic_person_24px-2" data-name="ic_person_24px" d="M22.8,27.214A13.608,13.608,0,1,0,9.078,13.607,13.659,13.659,0,0,0,22.8,27.214Zm-.116,3.614C13.523,30.829,0,35.175,0,44.223v6.8H48.013v-6.8C48.013,35.175,31.837,30.829,22.68,30.829Z" transform="translate(13.39 1.5)" fill="#fff"/>
        </g>
        <g transform="matrix(0, 1, -1, 0, 52.53, -4.5)" filter="url(#ic_arrow_forward_24px)">
          <path id="ic_arrow_forward_24px-2" data-name="ic_arrow_forward_24px" d="M9.788,0,7.241,2.526l3.218,3.21H0V9.318H10.459l-3.218,3.21,2.546,2.526,7.588-7.527Z" transform="translate(4.5 16.78)" fill="#fff"/>
        </g>
      </g>
    </g>
  </g>
</svg>
