<?xml version="1.0" standalone="no"?>
<!DOCTYPE svg PUBLIC "-//W3C//DTD SVG 20010904//EN"
 "http://www.w3.org/TR/2001/REC-SVG-20010904/DTD/svg10.dtd">
<svg version="1.0" xmlns="http://www.w3.org/2000/svg"
 width="293.000000pt" height="77.000000pt" viewBox="0 0 293.000000 77.000000"
 preserveAspectRatio="xMidYMid meet">
<metadata>
Created by potrace 1.16, written by Peter Selinger 2001-2019
</metadata>
<g transform="translate(0.000000,77.000000) scale(0.100000,-0.100000)"
fill="#000000" stroke="none">
<path d="M1280 345 c0 -104 2 -125 15 -125 12 0 15 16 15 80 0 73 2 82 28 109
37 41 74 49 101 22 18 -18 21 -33 21 -116 0 -80 2 -95 16 -95 14 0 15 14 12
104 -4 129 -17 151 -86 143 -26 -3 -53 -14 -68 -28 l-24 -22 0 26 c0 17 -5 27
-15 27 -13 0 -15 -21 -15 -125z"/>
<path d="M1800 295 c0 -110 4 -175 10 -175 6 0 10 30 10 70 0 39 3 70 6 70 3
0 17 -9 31 -20 42 -33 98 -27 139 14 29 29 34 41 34 80 0 116 -100 177 -179
110 l-31 -26 0 26 c0 14 -4 26 -10 26 -6 0 -10 -65 -10 -175z m150 140 c37
-19 50 -43 50 -93 0 -76 -68 -122 -129 -86 -66 39 -69 143 -4 178 36 19 47 19
83 1z"/>
<path d="M2138 454 c-35 -18 -58 -62 -58 -109 0 -80 57 -131 137 -122 41 4 83
29 83 49 0 14 -20 9 -42 -12 -33 -30 -83 -26 -119 9 -16 16 -29 39 -29 50 0
20 5 21 105 21 117 0 119 2 89 66 -28 59 -105 81 -166 48z"/>
<path d="M2414 451 c-72 -44 -69 -170 5 -214 40 -24 102 -22 135 4 14 11 26
25 26 30 0 14 -26 11 -39 -5 -20 -23 -66 -29 -99 -12 -78 40 -63 170 22 192
22 5 57 -6 88 -28 30 -21 34 3 5 28 -35 30 -98 32 -143 5z"/>
</g>
</svg>
